<?xml version="1.0" encoding="UTF-8"?>
<svg id="icon" xmlns="http://www.w3.org/2000/svg" viewBox="0 0 2400 2400">
  <defs>
    <style>
      .cls-1 {
        stroke-width: 0px;
      }
    </style>
  </defs>
  <path class="cls-1" d="M625,1674.97v-949.82c0-55.31,36.11-100.15,106.05-100.15h236.89s.06.03.06.06v54.43s-.02.04-.04.05l-57.39,3.89c-128,5.19-134.56,22.07-134.56,71.4v890.61c0,50.63,6.56,66.21,134.56,72.7l57.39,2.59s.04.02.04.05v54.17s-.02.05-.05.05h-237.06c-69.85,0-105.9-44.78-105.9-100.03Z"/>
  <path class="cls-1" d="M1669.1,1775h-237.06s-.05-.02-.05-.05v-54.42s.02-.06.06-.06l57.38-2.59c128-6.49,134.56-22.07,134.56-72.7v-890.61c0-49.33-6.56-66.21-134.56-71.4l-57.38-3.89s-.05-.03-.05-.06v-54.17s.02-.05.05-.05h236.9c69.94,0,106.05,44.84,106.05,100.15v949.82c0,55.25-36.04,100.03-105.9,100.03Z"/>
</svg>