<?xml version="1.0" encoding="UTF-8"?>
<svg id="icon_base" xmlns="http://www.w3.org/2000/svg" viewBox="0 0 2400 2400">
  <defs>
    <style>
      .cls-1 {
        fill: #fff;
        stroke-width: 0px;
      }
    </style>
  </defs>
  <path class="cls-1" d="M1934.86,150H465.08c-174.01,0-315.08,141.07-315.08,315.08v1469.78c0,174.05,141.09,315.14,315.14,315.14h1469.72c174.05,0,315.14-141.09,315.14-315.14V465.14c0-174.05-141.09-315.14-315.14-315.14ZM957.22,656.85s-.02.04-.04.05l-59.79,4.06c-133.34,5.41-140.17,23.03-140.17,74.51v929.33c0,52.83,6.83,69.09,140.17,75.87l59.79,2.71s.04.02.04.04v56.53s-.02.05-.05.05h-246.88c-72.75,0-110.29-46.74-110.29-104.38v-991.11c0-57.72,37.61-104.51,110.45-104.51h246.71s.06.03.06.06v56.79ZM1800,1695.62c0,57.65-37.54,104.38-110.29,104.38h-246.88s-.05-.02-.05-.05v-56.79s.02-.05.05-.05l59.78-2.71c133.34-6.77,140.17-23.04,140.17-75.87v-929.33c0-51.48-6.83-69.09-140.17-74.51l-59.78-4.06s-.05-.03-.05-.06v-56.52s.02-.05.05-.05h246.72c72.83,0,110.45,46.79,110.45,104.51v991.11Z"/>
</svg>