<?xml version="1.0" encoding="UTF-8"?>
<svg id="icon" xmlns="http://www.w3.org/2000/svg" viewBox="0 0 2000 2000">
  <defs>
    <style>
      .cls-1 {
        fill: #fff;
        stroke-width: 0px;
      }
    </style>
  </defs>
  <path class="cls-1" d="M250,1619.53V380.64c0-72.15,47.01-130.64,138.06-130.64h308.39s.08.03.08.07v70.99s-.02.06-.06.06l-74.73,5.08c-166.67,6.77-175.21,28.79-175.21,93.14v1161.66c0,66.04,8.55,86.36,175.21,94.83l74.73,3.38s.06.03.06.06v70.66s-.03.06-.06.06h-308.6c-90.93,0-137.86-58.42-137.86-130.47Z"/>
  <path class="cls-1" d="M1612.14,1750h-308.6s-.06-.03-.06-.06v-70.99s.03-.07.07-.07l74.71-3.38c166.67-8.47,175.21-28.79,175.21-94.83V419c0-64.35-8.55-86.36-175.21-93.14l-74.72-5.08s-.07-.04-.07-.07v-70.65s.03-.06.06-.06h308.4c91.05,0,138.06,58.49,138.06,130.64v1238.89c0,72.06-46.92,130.47-137.86,130.47Z"/>
</svg>