<?xml version="1.0" encoding="UTF-8"?>
<svg id="icon_base" xmlns="http://www.w3.org/2000/svg" viewBox="0 0 2400 2400">
  <defs>
    <style>
      .cls-1 {
        fill: gray;
        stroke-width: 0px;
      }
    </style>
  </defs>
  <path class="cls-1" d="M1934.86,150H465.08c-174.01,0-315.08,141.07-315.08,315.08v1469.78c0,174.05,141.09,315.14,315.14,315.14h1469.72c174.05,0,315.14-141.09,315.14-315.14V465.14c0-174.05-141.09-315.14-315.14-315.14ZM967.34,679.48s-.02.04-.04.05l-57.3,3.89c-127.78,5.19-134.33,22.07-134.33,71.4v890.61c0,50.63,6.55,66.22,134.33,72.71l57.3,2.59s.04.02.04.04v54.17s-.02.05-.05.05h-236.59c-69.72,0-105.69-44.79-105.69-100.03v-949.81c0-55.32,36.05-100.15,105.85-100.15h236.43s.06.03.06.06v54.42ZM1775,1674.97c0,55.25-35.98,100.03-105.69,100.03h-236.59s-.05-.02-.05-.05v-54.42s.02-.05.05-.05l57.28-2.59c127.78-6.49,134.33-22.08,134.33-72.71v-890.61c0-49.34-6.55-66.22-134.33-71.4l-57.28-3.89s-.05-.03-.05-.06v-54.16s.02-.05.05-.05h236.44c69.8,0,105.85,44.84,105.85,100.15v949.81Z"/>
</svg>